<?xml version="1.0" standalone="no"?>
<!DOCTYPE svg PUBLIC "-//W3C//DTD SVG 20010904//EN"
 "http://www.w3.org/TR/2001/REC-SVG-20010904/DTD/svg10.dtd">
<svg version="1.0" xmlns="http://www.w3.org/2000/svg"
 width="98.000000pt" height="118.000000pt" viewBox="0 0 98.000000 118.000000"
 preserveAspectRatio="xMidYMid meet">

<g transform="translate(0.000000,118.000000) scale(0.100000,-0.100000)"
fill="#000000" stroke="none">
<path d="M0 590 l0 -590 490 0 490 0 0 590 0 590 -490 0 -490 0 0 -590z m55
175 c-2 -33 -15 -45 -15 -13 0 20 7 38 14 38 1 0 1 -11 1 -25z m885 -12 c0
-15 -3 -23 -7 -20 -9 10 -10 56 -1 51 4 -3 8 -17 8 -31z m-899 -116 c-19 -20
-31 -26 -31 -17 0 19 54 74 59 59 2 -6 -11 -25 -28 -42z m929 -16 c0 -10 -9
-6 -30 14 -16 16 -30 35 -30 44 0 10 9 6 30 -14 17 -16 30 -35 30 -44z m-472
-94 c25 -4 24 -4 -5 -6 l-33 -1 2 68 2 67 3 -62 c4 -58 5 -62 31 -66z m-443
38 c-2 -33 -15 -45 -15 -13 0 20 7 38 14 38 1 0 1 -11 1 -25z m885 -12 c0 -15
-3 -23 -7 -20 -9 10 -10 56 -1 51 4 -3 8 -17 8 -31z m-720 -95 c0 -8 -14 -13
-35 -13 -21 0 -35 5 -35 13 0 7 14 12 35 12 21 0 35 -5 35 -12z m610 0 c0 -8
-14 -13 -35 -13 -21 0 -35 5 -35 13 0 7 14 12 35 12 21 0 35 -5 35 -12z m-733
-26 c1 -9 0 -26 -4 -36 -5 -17 -6 -17 -14 -3 -5 8 -7 26 -5 39 3 13 5 25 5 27
2 10 15 -11 18 -27z m810 0 c1 -9 0 -26 -4 -36 -5 -17 -6 -17 -14 -3 -5 8 -7
26 -5 39 3 13 5 25 5 27 2 10 15 -11 18 -27z m-336 -112 c10 -6 19 -17 19 -26
0 -11 -4 -12 -19 -4 -11 5 -47 10 -81 10 -34 0 -70 -5 -81 -10 -25 -14 -27 14
-1 29 22 14 138 14 163 1z m-271 -45 c0 -8 -6 -15 -13 -15 -7 0 -21 -10 -32
-22 -12 -15 -20 -18 -23 -10 -5 15 37 62 56 62 6 0 12 -7 12 -15z m428 -10
c13 -14 22 -30 20 -37 -3 -8 -11 -5 -23 10 -11 12 -25 22 -32 22 -7 0 -13 7
-13 15 0 22 22 18 48 -10z m-157 -5 c10 -6 19 -17 19 -26 0 -11 -4 -12 -19 -4
-11 5 -47 10 -81 10 -34 0 -70 -5 -81 -10 -25 -14 -27 14 -1 29 22 14 138 14
163 1z m-271 -45 c0 -8 -6 -15 -13 -15 -7 0 -21 -10 -32 -22 -12 -15 -20 -18
-23 -10 -5 15 37 62 56 62 6 0 12 -7 12 -15z m428 -10 c13 -14 22 -30 20 -37
-3 -8 -11 -5 -23 10 -11 12 -25 22 -32 22 -7 0 -13 7 -13 15 0 22 22 18 48
-10z m-431 -123 c1 -9 0 -26 -4 -36 -5 -17 -6 -17 -14 -3 -5 8 -7 26 -5 39 3
13 5 25 5 27 2 10 15 -11 18 -27z m410 0 c1 -9 0 -26 -4 -36 -5 -17 -6 -17
-14 -3 -5 8 -7 26 -5 39 3 13 5 25 5 27 2 10 15 -11 18 -27z m-187 -5 c0 -13
5 -28 11 -34 7 -7 -5 -10 -41 -10 -36 0 -48 3 -41 10 6 6 11 21 11 34 0 19 5
23 30 23 25 0 30 -4 30 -23z"/>
<path d="M478 83 c6 -2 18 -2 25 0 6 3 1 5 -13 5 -14 0 -19 -2 -12 -5z"/>
<path d="M478 53 c6 -2 18 -2 25 0 6 3 1 5 -13 5 -14 0 -19 -2 -12 -5z"/>
</g>
</svg>
